<svg width="600" height="600" xmlns="http://www.w3.org/2000/svg" xmlns:xlink="http://www.w3.org/1999/xlink">

    <defs>
        <radialGradient id="grad1" cx="-0.1" r=".9">
            <stop offset="0.3" stop-color="#ffd000" />

            <stop offset=".5" stop-color="#ff5e00" />
            <stop offset="1" stop-color="#ff1100" />

        </radialGradient>


        <linearGradient id="grad2">
            <stop offset="0.3" stop-color="steelblue" />

            <stop offset="1" stop-color="#1930b1" />

        </linearGradient>




        <g id="onda">
        
            <rect x="0" y="0" width="30" height="400" fill="white">
                <animateTransform attributeName="transform" attributeType="cx" type="translate"
                    values="40, 0; 0, 0; 40, 0" dur="3s" repeatCount="indefinite" />
            </rect>

        </g>

        <g id="mar">

            <rect x="0" y="0" width="400" height="600" fill="url(#grad2)">
                <animateTransform attributeName="transform" attributeType="cx" type="translate"
                    values="40, 0; 0, 0; 40, 0" dur="3s" repeatCount="indefinite" />
            </rect>
        </g>

    <g id="chapeu" >
            <path d="M 0 0 l 0 -330" stroke="gray" stroke-width="10" />
            <path d=" M -200 -220 
            q 200 -200 400 0
            q -50 0 -100 20 
            q -60 -5 -100 7 
            q -50 -10 -100 -7 
            q -60 -20 -100 -20" fill="#d60000" />

                <path d="M -180 -228 
            q 70 -68 170 -84 
            q -75 54 -95 101 
            q -40 -15 -70 -17 " fill="#e7e7af" stroke="beige" />

                <path d="M 10 -205  
            q 5 -50 0 -105 
            q 45 35 85 100 
            q -60 -5 -85 5" fill="#e7e7af" stroke="beige" />
            <animateTransform  attributeName="transform" type="rotate" values="15; 0; 15" dur="3s" repeatCount="indefinite" />
        </g>
    <g id="montanhas">

            <path d="M -15 260 l 70 -50 l 70 50 m -40 0 q 35 -80 110 0 z" fill="black"/>
            
        </g>
    </defs>


    <rect x="0" y="0" width="400" height="600" fill="#edc957" transform="rotate(20)translate(51,0)" />

    <use xlink:href="#mar" transform="rotate(20)translate(400,0)" />
    <use xlink:href="#onda" transform="rotate(20)translate(380,100)" />
    <rect x="0" y="0" width="600" height="600" fill="url(#grad1)" transform="rotate(-90)translate(-250,0)" />
    <use xlink:href="#montanhas" />

    <use xlink:href="#chapeu" fill="black" transform="scale(.5,.5)rotate(-15)translate(40,970)" />

   
    

    

</svg>